<?xml version="1.0" encoding="UTF-8"?>
<!DOCTYPE svg PUBLIC "-//W3C//DTD SVG 1.1//EN" "http://www.w3.org/Graphics/SVG/1.1/DTD/svg11.dtd">
<!-- Creator: CorelDRAW 2021 (64-Bit) -->
<svg xmlns="http://www.w3.org/2000/svg" xml:space="preserve" width="450px" height="251px" version="1.1" style="shape-rendering:geometricPrecision; text-rendering:geometricPrecision; image-rendering:optimizeQuality; fill-rule:evenodd; clip-rule:evenodd"
viewBox="0 0 2182.13 1215.95"
 xmlns:xlink="http://www.w3.org/1999/xlink"
 xmlns:xodm="http://www.corel.com/coreldraw/odm/2003">
 <defs>
  <style type="text/css">
   <![CDATA[
    .fil4 {fill:#FEFEFE}
    .fil5 {fill:#2B2A29}
    .fil0 {fill:#DC2127}
    .fil1 {fill:#9FA0A2}
    .fil2 {fill:#2B4387}
    .fil3 {fill:#2B2A29;fill-rule:nonzero}
   ]]>
  </style>
 </defs>
 <g id="Layer_x0020_1">
  <metadata id="CorelCorpID_0Corel-Layer"/>
  <g id="_2905406702288">
   <path class="fil0" d="M1403.85 0.01l772.13 0c0,243.07 5.45,485.46 5.45,730.87l-925.39 0c5.49,-43.62 31.75,-66.48 58.95,-88.41 69.52,-7.79 130.75,39.36 170.93,-5.89 13.89,-29.48 -13.21,-66.96 23.57,-76.63 0.02,-15.75 -18.63,-12.81 -17.68,-29.47 38,-5.8 9.42,-22.8 11.79,-53.05 12.75,-8.86 36.66,-6.57 41.26,-23.58 -9,-44.04 -40.14,-65.95 -58.94,-100.2 5.71,-74.47 -8.2,-129.33 -29.48,-176.82 -5.8,-27 38.95,-22.95 17.69,-47.16 -8.84,-19.48 -14.42,12.25 -29.47,5.9 12.83,-13.53 -15.7,-18.95 -23.58,-29.47 -7.76,-11.88 -19.35,-19.95 -35.36,-23.58 7.95,-13.65 44.33,1.11 47.15,-17.68 13.75,-26.09 -9.85,-54.57 -29.02,-64.83z"/>
   <path class="fil1" d="M1468.23 300.61c-11.01,30.05 -37.33,39.36 -29.47,76.62 -25.39,3.78 -19.1,-24.13 -47.15,-17.68 10.35,-23.55 94.35,-61.11 11.79,-58.94 -4.38,-11.98 51.22,-15.24 64.83,0z"/>
   <path class="fil2" d="M637.16 636.58l35.37 0c3.55,-27.5 -30.54,-13.24 -35.37,0zm-200.4 -123.79c-2.64,36.76 -48.96,60.93 -41.26,88.42 30.88,-47.71 72.2,-84.98 123.78,-111.99 -0.86,6.97 -10.49,13.36 0,17.68 26.04,-48.61 57.09,-92.22 111.99,-111.99 -95.23,-12.98 -121.12,89.85 -194.51,117.88zm412.59 -100.2c-11.98,4.88 14.16,20.65 17.68,29.48 -8.22,9.46 -29.09,6.27 -35.36,17.68 -49.93,-27.73 -137.2,-46.07 -212.19,-29.48 -37.84,27.27 -42.45,51.6 -70.73,88.42 -1,12.78 20.91,2.67 29.47,5.89 -1.6,12.16 -26.1,1.41 -23.58,17.69 -1,23.3 9.05,-1.89 17.69,11.78 -25.04,37.85 -65.28,60.47 -88.42,100.21 73.15,-60.89 201.54,-33.06 288.82,-82.52 -46.78,-39.67 -120.14,-52.77 -182.72,-76.63 -5.64,-10.97 17.65,-19.7 0,-23.58 22.21,-24.92 70.12,-24.18 106.09,-35.36 23.49,6.45 -67.35,22.15 -88.41,29.47 45.85,12.78 90.02,3.99 135.56,23.58 20.79,8.94 33.57,32.61 53.05,35.36 34.71,4.92 69.34,-21.68 94.31,-29.47 -1.61,32.15 -16.89,45.23 -29.48,64.84 -2.22,3.47 -2.5,20.09 -5.89,23.58 -7.39,7.6 -26.59,6.64 -35.36,11.79 -8.72,5.11 -73.69,48.17 -76.63,53.04 -1.34,2.24 30.51,11.37 0,17.68 74.79,17.77 130.77,-34.22 176.83,-64.83 -19.5,90.24 -195.21,67 -247.55,117.88 -0.57,11.39 -23.01,-10.2 -23.58,11.79l-76.62 0c3.66,-17.95 31.7,-11.52 35.36,-29.47 -22.39,-11.29 -82.03,7.38 -106.1,29.47l-489.21 0 0 -730.87 978.43 0c-12.83,12.89 -36.93,18.25 -53.05,35.36 -11.48,12.18 -11.58,36.59 -23.57,53.05 -8.74,11.99 -36.18,25.36 -47.16,41.25 -41.06,59.48 -41.3,165.35 0,253.45 11.26,24.03 37.84,39.14 41.26,64.84 -33.91,2.48 -45.17,-17.7 -58.94,-35.37z"/>
   <path class="fil2" d="M990.81 654.26c-3.59,22.05 -47.52,54.56 -70.73,76.62l-182.72 0c47.62,-21.67 92.82,-11.6 135.57,-29.47 40.96,-17.14 73.83,-55.14 123.77,-58.94 -3.29,5.23 -17.73,25.8 -5.89,11.79z"/>
   <path class="fil3" d="M87.22 943.1l-85.4 0 1.19 -2.96c4.53,-0.11 7.56,-0.45 9.09,-1.04 2.38,-0.96 4.13,-2.21 5.27,-3.76 1.75,-2.45 3.62,-6.89 5.6,-13.29l20.32 -66.05c1.69,-5.44 2.55,-9.45 2.55,-12.01 0,-2.03 -0.78,-3.6 -2.34,-4.72 -1.56,-1.13 -4.49,-1.68 -8.8,-1.68 -0.96,0 -1.73,-0.03 -2.29,-0.08l1.02 -2.97 46.99 0 -0.68 2.97c-5.27,0 -9.01,0.47 -11.21,1.44 -2.21,0.96 -4.06,2.53 -5.53,4.72 -1.02,1.44 -2.69,5.92 -5.01,13.45l-19.97 64.93c-1.53,4.91 -2.3,8.32 -2.3,10.25 0,1.28 0.77,2.51 2.3,3.68 0.96,0.8 3.14,1.2 6.54,1.2l11.13 0c8.1,0 14.53,-0.96 19.29,-2.88 3.51,-1.44 6.74,-3.61 9.69,-6.49 1.59,-1.6 4.39,-5.58 8.42,-11.93l2.2 -3.6 3.15 0 -11.22 30.82z"/>
   <path class="fil3" d="M143.14 838.87c2.38,0 4.39,0.77 6.04,2.32 1.63,1.55 2.46,3.44 2.46,5.68 0,2.19 -0.84,4.08 -2.51,5.65 -1.67,1.58 -3.67,2.36 -5.99,2.36 -2.33,0 -4.32,-0.78 -5.99,-2.36 -1.67,-1.57 -2.51,-3.46 -2.51,-5.65 0,-2.24 0.82,-4.13 2.47,-5.68 1.64,-1.55 3.65,-2.32 6.03,-2.32zm1.1 31.78l-16.82 56.12c-1.14,3.79 -1.7,6.06 -1.7,6.81 0,0.85 0.27,1.55 0.8,2.08 0.54,0.53 1.18,0.8 1.92,0.8 0.84,0 1.87,-0.43 3.05,-1.28 3.24,-2.4 6.49,-5.82 9.78,-10.25l2.97 1.84c-3.85,5.56 -8.38,10.22 -13.59,14.01 -3.86,2.83 -7.54,4.24 -11.05,4.24 -2.33,0 -4.22,-0.65 -5.69,-1.96 -1.48,-1.3 -2.21,-2.95 -2.21,-4.92 0,-1.97 0.71,-5.25 2.12,-9.85l11.05 -35.86c1.81,-5.87 2.72,-9.55 2.72,-11.05 0,-1.17 -0.44,-2.14 -1.32,-2.88 -0.88,-0.75 -2.08,-1.12 -3.61,-1.12 -1.25,0 -3.83,0.29 -7.73,0.88l0 -3.13 29.31 -4.48z"/>
   <path class="fil3" d="M169.91 936.86c5.66,2.93 10.65,4.4 14.95,4.4 4.99,0 10.16,-1.72 15.51,-5.16 5.36,-3.44 10,-9.25 13.94,-17.41 3.94,-8.17 5.91,-16.42 5.91,-24.74 0,-4.91 -1.29,-8.76 -3.87,-11.53 -2.58,-2.78 -5.62,-4.16 -9.13,-4.16 -5.27,0 -10.43,1.99 -15.47,5.96 -5.04,3.98 -8.64,9.51 -10.79,16.61l-11.05 36.03zm32.88 -107.6l-16.74 55.32c5.44,-5.34 10.19,-8.99 14.24,-10.97 4.05,-1.97 8.28,-2.96 12.71,-2.96 6.23,0 11.32,1.95 15.29,5.84 3.97,3.9 5.95,9.19 5.95,15.86 0,8.59 -2.61,17.14 -7.82,25.66 -5.21,8.51 -11.76,15.14 -19.63,19.89 -7.87,4.75 -15.64,7.12 -23.28,7.12 -8.56,0 -17.34,-3.01 -26.35,-9.04l25.84 -83.82c1.98,-6.46 2.97,-10.25 2.97,-11.37 0,-1.39 -0.45,-2.43 -1.36,-3.12 -1.31,-0.96 -3.23,-1.44 -5.78,-1.44 -1.19,0 -3.01,0.18 -5.44,0.56l0 -3.04 29.4 -4.49z"/>
   <path class="fil3" d="M260.92 909c8.39,-0.91 15.21,-2.45 20.48,-4.65 6.97,-2.93 12.2,-6.44 15.68,-10.52 3.49,-4.09 5.23,-7.97 5.23,-11.65 0,-2.24 -0.75,-4.06 -2.25,-5.44 -1.5,-1.39 -3.65,-2.08 -6.42,-2.08 -5.78,0 -11.91,2.89 -18.4,8.68 -6.48,5.79 -11.26,14.35 -14.32,25.66zm-0.59 3.92c-0.4,2.67 -0.6,4.89 -0.6,6.64 0,4.76 1.79,8.8 5.36,12.14 3.56,3.33 7.9,5 13,5 4.08,0 8,-0.79 11.77,-2.36 3.77,-1.57 9.36,-5.06 16.78,-10.45l1.79 2.32c-13.43,12.55 -26.23,18.81 -38.41,18.81 -8.28,0 -14.51,-2.45 -18.7,-7.36 -4.2,-4.91 -6.29,-10.33 -6.29,-16.25 0,-7.96 2.6,-16.09 7.82,-24.42 5.21,-8.32 11.75,-14.8 19.63,-19.41 7.88,-4.62 15.98,-6.93 24.31,-6.93 6,0 10.45,1.15 13.34,3.45 2.89,2.29 4.33,5.01 4.33,8.16 0,4.43 -1.87,8.67 -5.61,12.73 -4.93,5.28 -12.18,9.55 -21.75,12.81 -6.35,2.19 -15.27,3.9 -26.77,5.12z"/>
   <path class="fil3" d="M325.93 875.13l29.32 -4.48 -12.24 38.91c9.92,-15.96 18.93,-27.11 27.03,-33.47 4.59,-3.62 8.33,-5.44 11.21,-5.44 1.88,0 3.35,0.52 4.43,1.56 1.07,1.04 1.61,2.55 1.61,4.53 0,3.52 -0.96,6.88 -2.89,10.08 -1.36,2.41 -3.31,3.6 -5.86,3.6 -1.31,0 -2.42,-0.4 -3.36,-1.19 -0.94,-0.81 -1.51,-2.03 -1.74,-3.69 -0.12,-1.01 -0.37,-1.68 -0.77,-2 -0.45,-0.42 -0.99,-0.64 -1.61,-0.64 -0.96,0 -1.87,0.22 -2.72,0.64 -1.47,0.75 -3.71,2.83 -6.71,6.24 -4.71,5.24 -9.8,12.01 -15.3,20.34 -2.38,3.52 -4.42,7.5 -6.12,11.93 -2.38,6.08 -3.74,9.74 -4.08,10.97l-2.72 10.08 -13 0 15.72 -49.72c1.81,-5.76 2.72,-9.87 2.72,-12.32 0,-0.96 -0.43,-1.76 -1.27,-2.41 -1.14,-0.85 -2.64,-1.27 -4.51,-1.27 -1.19,0 -3.37,0.24 -6.54,0.72l-0.6 -2.97z"/>
   <path class="fil3" d="M429.78 850.8l-6.63 21.77 13.34 0 -1.44 5.05 -13.26 0 -14.61 47.23c-1.59,5.07 -2.38,8.36 -2.38,9.85 0,0.91 0.22,1.6 0.68,2.08 0.45,0.48 0.99,0.72 1.61,0.72 1.42,0 3.29,-0.93 5.61,-2.8 1.36,-1.07 4.39,-4.35 9.09,-9.85l2.81 2c-5.21,7.15 -10.14,12.2 -14.79,15.13 -3.17,2.03 -6.37,3.04 -9.6,3.04 -2.5,0 -4.53,-0.73 -6.12,-2.2 -1.59,-1.46 -2.38,-3.35 -2.38,-5.64 0,-2.88 0.91,-7.28 2.72,-13.21l14.19 -46.35 -12.83 0 0.85 -3.12c6.23,-1.61 11.41,-4 15.55,-7.17 4.13,-3.18 8.76,-8.69 13.85,-16.53l3.74 0z"/>
   <path class="fil3" d="M505.5 830.86l-24.98 27.46 -2.89 0 8.75 -27.46 19.12 0zm-51.24 78.14c8.38,-0.91 15.21,-2.45 20.48,-4.65 6.97,-2.93 12.19,-6.44 15.68,-10.52 3.48,-4.09 5.22,-7.97 5.22,-11.65 0,-2.24 -0.75,-4.06 -2.25,-5.44 -1.5,-1.39 -3.64,-2.08 -6.41,-2.08 -5.78,0 -11.92,2.89 -18.41,8.68 -6.48,5.79 -11.26,14.35 -14.31,25.66zm-0.6 3.92c-0.4,2.67 -0.6,4.89 -0.6,6.64 0,4.76 1.79,8.8 5.36,12.14 3.57,3.33 7.9,5 13,5 4.08,0 8,-0.79 11.77,-2.36 3.77,-1.57 9.36,-5.06 16.79,-10.45l1.78 2.32c-13.43,12.55 -26.23,18.81 -38.41,18.81 -8.28,0 -14.51,-2.45 -18.7,-7.36 -4.19,-4.91 -6.29,-10.33 -6.29,-16.25 0,-7.96 2.61,-16.09 7.83,-24.42 5.21,-8.32 11.75,-14.8 19.62,-19.41 7.88,-4.62 15.98,-6.93 24.31,-6.93 6,0 10.45,1.15 13.34,3.45 2.89,2.29 4.33,5.01 4.33,8.16 0,4.43 -1.86,8.67 -5.6,12.73 -4.93,5.28 -12.18,9.55 -21.76,12.81 -6.35,2.19 -15.27,3.9 -26.77,5.12z"/>
   <path class="fil3" d="M807.67 796.04l-24.98 27.46 -2.9 0 8.76 -27.46 19.12 0zm-30.76 41.55l-13.18 42.91 10.79 0c7.71,0 13.29,-1.11 16.75,-3.32 3.45,-2.21 6.43,-6.31 8.92,-12.29l3.14 0 -11.81 39.39 -3.4 0c1.02,-3.31 1.53,-6.14 1.53,-8.49 0,-2.29 -0.49,-4.13 -1.48,-5.52 -1,-1.39 -2.36,-2.42 -4.09,-3.08 -1.72,-0.67 -5.36,-1 -10.91,-1l-10.96 0 -11.14 35.94c-1.08,3.47 -1.61,6.12 -1.61,7.93 0,1.39 0.71,2.61 2.12,3.68 0.96,0.75 3.37,1.12 7.22,1.12l10.2 0c11.05,0 19.9,-1.84 26.56,-5.52 6.66,-3.69 12.62,-10.09 17.89,-19.21l3.14 0 -10.87 30.17 -89.06 0 1.1 -2.96c4.42,-0.1 7.39,-0.48 8.92,-1.11 2.27,-0.97 3.91,-2.19 4.93,-3.69 1.53,-2.19 3.34,-6.78 5.44,-13.77l20.22 -65.49c1.59,-5.28 2.39,-9.31 2.39,-12.09 0,-2.03 -0.76,-3.61 -2.26,-4.76 -1.5,-1.15 -4.43,-1.72 -8.79,-1.72l-1.79 0 1.02 -2.96 82.77 0 -7.13 26.18 -3.15 0c0.4,-2.46 0.6,-4.52 0.6,-6.17 0,-2.83 -0.74,-5.2 -2.21,-7.13 -1.93,-2.45 -4.73,-4.32 -8.42,-5.6 -2.72,-0.96 -8.98,-1.44 -18.78,-1.44l-14.61 0z"/>
   <path class="fil3" d="M888.06 885.38c0,-4.26 -1.26,-7.63 -3.78,-10.08 -2.52,-2.46 -5.82,-3.68 -9.9,-3.68 -6.4,0 -11.69,3.02 -15.85,9.08 -4.17,6.06 -6.24,12.37 -6.24,18.93 0,4.12 1.32,7.48 3.99,10.1 2.66,2.61 5.89,3.92 9.69,3.92 3,0 5.9,-0.77 8.71,-2.33 2.8,-1.54 5.17,-3.68 7.09,-6.4 1.93,-2.72 3.46,-6.19 4.59,-10.41 1.13,-4.21 1.7,-7.25 1.7,-9.13zm-40.71 54.92c-4.58,1.98 -8.05,4.52 -10.4,7.61 -2.36,3.1 -3.53,6.14 -3.53,9.13 0,3.52 1.69,6.43 5.1,8.73 4.87,3.3 12.01,4.96 21.41,4.96 8.11,0 15.03,-1.3 20.78,-3.89 5.75,-2.58 8.63,-5.94 8.63,-10.04 0,-2.09 -1.07,-4.06 -3.19,-5.92 -2.12,-1.88 -6.25,-3.39 -12.36,-4.57 -3.35,-0.64 -12.16,-2.64 -26.44,-6.01zm70.2 -67.48l-2.46 8.32 -14.2 0c1.08,2.89 1.62,5.58 1.62,8.09 0,7.04 -3.17,13.31 -9.52,18.81 -6.4,5.5 -15.18,8.54 -26.35,9.13 -6,1.71 -10.51,3.73 -13.51,6.08 -1.13,0.86 -1.7,1.74 -1.7,2.64 0,1.07 0.51,2.05 1.53,2.93 1.02,0.88 3.6,1.77 7.74,2.68l16.48 3.6c9.13,2.03 15.16,4.43 18.11,7.21 2.88,2.83 4.33,6.08 4.33,9.76 0,4.38 -1.72,8.38 -5.14,12.01 -3.43,3.63 -8.44,6.48 -15.05,8.53 -6.59,2.05 -13.89,3.08 -21.88,3.08 -7.02,0 -13.43,-0.79 -19.21,-2.36 -5.77,-1.58 -9.91,-3.7 -12.4,-6.37 -2.49,-2.66 -3.74,-5.41 -3.74,-8.24 0,-2.29 0.81,-4.68 2.42,-7.17 1.62,-2.48 3.64,-4.52 6.08,-6.12 1.53,-1.01 5.86,-3.41 13,-7.21 -2.61,-1.91 -3.91,-4.03 -3.91,-6.32 0,-2.13 1.15,-4.4 3.45,-6.81 2.29,-2.4 7.14,-5.04 14.57,-7.92 -6.23,-1.12 -11.18,-3.58 -14.83,-7.36 -3.66,-3.8 -5.48,-8.01 -5.48,-12.66 0,-7.57 3.53,-14.36 10.58,-20.33 7.05,-5.98 16.44,-8.97 28.17,-8.97 4.25,0 7.73,0.4 10.45,1.2 2.72,0.8 5.36,2.06 7.9,3.77l22.95 0z"/>
   <path class="fil3" d="M965.31 872.02c-3.63,0 -7.48,1.59 -11.56,4.8 -5.78,4.54 -10.92,11.26 -15.42,20.17 -4.5,8.92 -6.76,16.98 -6.76,24.18 0,3.63 0.96,6.5 2.89,8.61 1.93,2.11 4.14,3.16 6.63,3.16 6.17,0 12.88,-4.3 20.14,-12.89 9.69,-11.42 14.53,-23.14 14.53,-35.15 0,-4.53 -0.93,-7.82 -2.8,-9.84 -1.87,-2.03 -4.42,-3.04 -7.65,-3.04zm30.25 -4.17l-16.57 54.28 -1.87 7.29c-0.17,0.69 -0.25,1.28 -0.25,1.76 0,0.85 0.28,1.6 0.84,2.24 0.46,0.48 1.02,0.72 1.71,0.72 0.73,0 1.7,-0.42 2.88,-1.28 2.21,-1.55 5.16,-4.75 8.85,-9.61l2.88 1.92c-3.9,5.56 -7.93,9.78 -12.07,12.69 -4.13,2.91 -7.96,4.37 -11.47,4.37 -2.43,0 -4.26,-0.57 -5.48,-1.73 -1.22,-1.14 -1.83,-2.81 -1.83,-5 0,-2.61 0.63,-6.06 1.87,-10.33l1.79 -6c-7.42,9.13 -14.25,15.5 -20.48,19.13 -4.48,2.62 -8.87,3.93 -13.18,3.93 -4.13,0 -7.7,-1.62 -10.7,-4.85 -3.01,-3.23 -4.51,-7.67 -4.51,-13.33 0,-8.48 2.71,-17.43 8.12,-26.86 5.41,-9.41 12.28,-16.96 20.61,-22.61 6.51,-4.49 12.66,-6.73 18.44,-6.73 3.46,0 6.33,0.86 8.62,2.56 2.3,1.71 4.04,4.54 5.23,8.49l3.06 -9.13 13.51 -1.92z"/>
   <path class="fil3" d="M1052.67 826.46l-29.06 95.27c-1.42,4.75 -2.13,7.66 -2.13,8.73 0,0.8 0.27,1.46 0.81,2 0.54,0.54 1.2,0.8 1.99,0.8 1.08,0 2.24,-0.45 3.49,-1.36 2.95,-2.19 6.03,-5.58 9.26,-10.17l2.55 2.49c-5.38,7.15 -10.34,12.14 -14.87,14.97 -3.34,2.02 -6.51,3.04 -9.52,3.04 -2.15,0 -3.95,-0.7 -5.39,-2.09 -1.45,-1.38 -2.17,-2.98 -2.17,-4.8 0,-1.92 0.9,-5.87 2.72,-11.85l23.03 -75.09c1.87,-6.14 2.81,-9.66 2.81,-10.57 0,-1.28 -0.54,-2.33 -1.62,-3.16 -1.08,-0.83 -2.75,-1.25 -5.02,-1.25 -1.3,0 -3.28,0.19 -5.94,0.57l0 -2.96 29.06 -4.57z"/>
   <path class="fil3" d="M1088.19 836.07c2.38,0 4.39,0.77 6.04,2.32 1.64,1.55 2.46,3.44 2.46,5.68 0,2.2 -0.84,4.07 -2.51,5.65 -1.67,1.57 -3.66,2.36 -5.99,2.36 -2.32,0 -4.32,-0.79 -5.99,-2.36 -1.67,-1.58 -2.5,-3.45 -2.5,-5.65 0,-2.24 0.82,-4.13 2.46,-5.68 1.64,-1.55 3.65,-2.32 6.03,-2.32zm1.11 31.78l-16.83 56.12c-1.14,3.8 -1.7,6.06 -1.7,6.81 0,0.85 0.27,1.55 0.81,2.08 0.53,0.54 1.17,0.8 1.91,0.8 0.85,0 1.87,-0.42 3.06,-1.28 3.23,-2.4 6.49,-5.82 9.77,-10.25l2.98 1.84c-3.86,5.55 -8.39,10.23 -13.6,14.01 -3.86,2.83 -7.54,4.25 -11.05,4.25 -2.32,0 -4.22,-0.65 -5.69,-1.97 -1.47,-1.3 -2.21,-2.94 -2.21,-4.92 0,-1.97 0.71,-5.25 2.12,-9.85l11.05 -35.86c1.82,-5.87 2.72,-9.56 2.72,-11.05 0,-1.17 -0.44,-2.13 -1.32,-2.88 -0.87,-0.75 -2.08,-1.12 -3.61,-1.12 -1.24,0 -3.82,0.29 -7.73,0.88l0 -3.12 29.32 -4.49z"/>
   <path class="fil3" d="M1142.84 848l-6.63 21.78 13.34 0 -1.45 5.04 -13.25 0 -14.62 47.23c-1.59,5.07 -2.38,8.36 -2.38,9.85 0,0.91 0.23,1.6 0.68,2.08 0.46,0.48 0.99,0.72 1.61,0.72 1.42,0 3.29,-0.93 5.62,-2.8 1.35,-1.07 4.38,-4.35 9.09,-9.85l2.8 2c-5.21,7.16 -10.14,12.2 -14.79,15.14 -3.17,2.02 -6.37,3.04 -9.6,3.04 -2.49,0 -4.53,-0.74 -6.12,-2.21 -1.58,-1.46 -2.37,-3.34 -2.37,-5.64 0,-2.88 0.9,-7.28 2.72,-13.21l14.18 -46.35 -12.83 0 0.85 -3.12c6.23,-1.61 11.42,-3.99 15.56,-7.17 4.13,-3.17 8.75,-8.69 13.85,-16.53l3.74 0z"/>
   <path class="fil3" d="M1218.56 828.06l-24.99 27.46 -2.89 0 8.75 -27.46 19.13 0zm-51.25 78.14c8.38,-0.91 15.21,-2.45 20.48,-4.64 6.97,-2.94 12.2,-6.45 15.68,-10.53 3.48,-4.08 5.22,-7.97 5.22,-11.65 0,-2.24 -0.75,-4.05 -2.25,-5.45 -1.5,-1.38 -3.64,-2.07 -6.41,-2.07 -5.78,0 -11.91,2.89 -18.4,8.68 -6.49,5.79 -11.26,14.35 -14.32,25.66zm-0.6 3.93c-0.39,2.66 -0.59,4.88 -0.59,6.64 0,4.75 1.78,8.79 5.35,12.13 3.58,3.33 7.91,5 13.01,5 4.08,0 8,-0.78 11.77,-2.36 3.76,-1.57 9.36,-5.06 16.78,-10.45l1.79 2.32c-13.43,12.55 -26.23,18.82 -38.42,18.82 -8.27,0 -14.5,-2.46 -18.69,-7.37 -4.19,-4.91 -6.29,-10.32 -6.29,-16.25 0,-7.95 2.61,-16.09 7.82,-24.42 5.21,-8.33 11.75,-14.8 19.63,-19.41 7.87,-4.62 15.98,-6.93 24.3,-6.93 6.01,0 10.46,1.15 13.34,3.44 2.89,2.3 4.34,5.02 4.34,8.17 0,4.43 -1.87,8.67 -5.61,12.73 -4.93,5.28 -12.18,9.56 -21.76,12.81 -6.34,2.19 -15.27,3.89 -26.77,5.13z"/>
   <path class="fil3" d="M1513.95 839.83l-13.6 42.99 15.13 0c6.79,0 11.88,-0.99 15.25,-2.96 3.37,-1.97 6.84,-6.19 10.41,-12.65l3.23 0 -11.98 39.55 -3.4 0c0.85,-3.2 1.27,-5.84 1.27,-7.93 0,-3.25 -1.14,-5.77 -3.44,-7.56 -2.29,-1.79 -6.59,-2.68 -12.87,-2.68l-15.3 0 -10.02 32.74c-1.82,5.82 -2.73,9.68 -2.73,11.61 0,1.97 0.78,3.5 2.34,4.56 1.56,1.07 5.37,1.79 11.43,2.16l-1.02 2.96 -45.55 0 1.1 -2.96c4.43,-0.1 7.37,-0.48 8.85,-1.12 2.26,-0.91 3.93,-2.13 5.01,-3.68 1.53,-2.19 3.34,-6.7 5.44,-13.53l20.31 -65.41c1.64,-5.28 2.46,-9.42 2.46,-12.41 0,-1.39 -0.37,-2.57 -1.1,-3.56 -0.74,-0.99 -1.83,-1.72 -3.27,-2.2 -1.45,-0.48 -4.32,-0.72 -8.63,-0.72l1.02 -2.96 89.4 0 -8.5 27.45 -3.23 0c0.62,-3.3 0.94,-6.03 0.94,-8.16 0,-3.52 -1.04,-6.31 -3.11,-8.37 -2.06,-2.05 -4.71,-3.51 -7.94,-4.36 -2.27,-0.53 -7.34,-0.8 -15.21,-0.8l-22.69 0z"/>
   <path class="fil3" d="M1572.75 874.66l29.32 -4.49 -12.23 38.91c9.91,-15.96 18.92,-27.11 27.02,-33.46 4.59,-3.63 8.33,-5.45 11.22,-5.45 1.87,0 3.34,0.52 4.42,1.57 1.07,1.03 1.61,2.54 1.61,4.51 0,3.53 -0.96,6.89 -2.89,10.1 -1.36,2.4 -3.31,3.6 -5.86,3.6 -1.31,0 -2.42,-0.4 -3.36,-1.2 -0.93,-0.81 -1.51,-2.03 -1.74,-3.69 -0.12,-1.01 -0.37,-1.68 -0.76,-2 -0.46,-0.43 -0.99,-0.64 -1.62,-0.64 -0.96,0 -1.87,0.21 -2.72,0.64 -1.47,0.75 -3.71,2.83 -6.71,6.25 -4.7,5.23 -9.8,12.01 -15.3,20.33 -2.38,3.52 -4.42,7.5 -6.12,11.93 -2.38,6.08 -3.74,9.74 -4.07,10.97l-2.73 10.08 -13 0 15.73 -49.71c1.81,-5.77 2.71,-9.87 2.71,-12.33 0,-0.96 -0.42,-1.76 -1.27,-2.4 -1.14,-0.85 -2.64,-1.28 -4.51,-1.28 -1.18,0 -3.37,0.24 -6.54,0.72l-0.6 -2.96z"/>
   <path class="fil3" d="M1682.81 874.34c-3.63,0 -7.48,1.59 -11.56,4.8 -5.78,4.54 -10.92,11.26 -15.43,20.17 -4.5,8.91 -6.75,16.98 -6.75,24.18 0,3.63 0.96,6.5 2.89,8.61 1.92,2.1 4.13,3.16 6.63,3.16 6.17,0 12.88,-4.3 20.14,-12.89 9.68,-11.42 14.53,-23.14 14.53,-35.15 0,-4.53 -0.93,-7.82 -2.81,-9.84 -1.86,-2.03 -4.41,-3.04 -7.64,-3.04zm30.25 -4.17l-16.57 54.28 -1.87 7.29c-0.17,0.69 -0.26,1.28 -0.26,1.76 0,0.85 0.28,1.6 0.85,2.24 0.45,0.48 1.02,0.72 1.7,0.72 0.74,0 1.7,-0.42 2.9,-1.28 2.2,-1.55 5.15,-4.75 8.83,-9.61l2.89 1.92c-3.91,5.56 -7.93,9.78 -12.07,12.69 -4.13,2.91 -7.96,4.37 -11.47,4.37 -2.43,0 -4.26,-0.58 -5.48,-1.73 -1.22,-1.14 -1.83,-2.81 -1.83,-5 0,-2.61 0.63,-6.06 1.87,-10.33l1.79 -6c-7.43,9.13 -14.25,15.5 -20.49,19.13 -4.47,2.62 -8.86,3.93 -13.17,3.93 -4.13,0 -7.7,-1.62 -10.7,-4.85 -3.01,-3.23 -4.51,-7.67 -4.51,-13.33 0,-8.48 2.71,-17.44 8.12,-26.86 5.41,-9.42 12.27,-16.96 20.61,-22.61 6.51,-4.49 12.66,-6.73 18.43,-6.73 3.46,0 6.34,0.86 8.63,2.56 2.3,1.71 4.04,4.54 5.23,8.49l3.06 -9.13 13.51 -1.92z"/>
   <path class="fil3" d="M1763.63 850.32l-6.64 21.78 13.35 0 -1.45 5.04 -13.25 0 -14.62 47.23c-1.59,5.07 -2.38,8.36 -2.38,9.85 0,0.91 0.23,1.6 0.68,2.08 0.45,0.48 0.99,0.72 1.61,0.72 1.42,0 3.29,-0.93 5.61,-2.8 1.36,-1.07 4.39,-4.35 9.1,-9.85l2.8 2c-5.22,7.16 -10.14,12.2 -14.79,15.14 -3.17,2.02 -6.37,3.04 -9.6,3.04 -2.49,0 -4.53,-0.74 -6.12,-2.21 -1.58,-1.46 -2.38,-3.34 -2.38,-5.64 0,-2.88 0.91,-7.28 2.72,-13.21l14.19 -46.35 -12.83 0 0.85 -3.13c6.23,-1.6 11.42,-3.99 15.55,-7.16 4.14,-3.17 8.76,-8.69 13.86,-16.53l3.74 0z"/>
   <path class="fil3" d="M1788.1 908.52c8.38,-0.91 15.21,-2.45 20.48,-4.64 6.97,-2.94 12.19,-6.45 15.68,-10.53 3.48,-4.08 5.22,-7.97 5.22,-11.65 0,-2.24 -0.75,-4.05 -2.25,-5.45 -1.5,-1.38 -3.64,-2.07 -6.41,-2.07 -5.78,0 -11.91,2.89 -18.4,8.68 -6.49,5.79 -11.26,14.35 -14.32,25.66zm-0.6 3.93c-0.39,2.66 -0.59,4.88 -0.59,6.64 0,4.75 1.78,8.79 5.35,12.12 3.57,3.34 7.91,5.01 13,5.01 4.08,0 8,-0.78 11.77,-2.36 3.77,-1.57 9.37,-5.06 16.79,-10.45l1.78 2.32c-13.42,12.55 -26.23,18.82 -38.41,18.82 -8.27,0 -14.5,-2.46 -18.7,-7.37 -4.19,-4.91 -6.28,-10.32 -6.28,-16.25 0,-7.95 2.6,-16.09 7.82,-24.42 5.2,-8.33 11.75,-14.8 19.63,-19.41 7.87,-4.62 15.97,-6.93 24.3,-6.93 6.01,0 10.46,1.15 13.34,3.44 2.89,2.3 4.34,5.02 4.34,8.17 0,4.43 -1.87,8.67 -5.61,12.73 -4.93,5.28 -12.18,9.56 -21.76,12.81 -6.34,2.19 -15.27,3.89 -26.77,5.13z"/>
   <path class="fil3" d="M1853.11 874.66l29.32 -4.49 -12.24 38.91c9.91,-15.96 18.92,-27.11 27.03,-33.46 4.58,-3.63 8.32,-5.45 11.21,-5.45 1.87,0 3.35,0.52 4.42,1.57 1.08,1.03 1.62,2.54 1.62,4.51 0,3.53 -0.97,6.89 -2.89,10.1 -1.36,2.4 -3.32,3.6 -5.87,3.6 -1.3,0 -2.42,-0.4 -3.36,-1.2 -0.93,-0.81 -1.51,-2.03 -1.74,-3.69 -0.11,-1.01 -0.36,-1.68 -0.76,-2 -0.46,-0.43 -1,-0.64 -1.61,-0.64 -0.97,0 -1.88,0.21 -2.72,0.64 -1.48,0.75 -3.72,2.83 -6.72,6.25 -4.7,5.23 -9.8,12.01 -15.29,20.33 -2.39,3.52 -4.43,7.5 -6.12,11.93 -2.38,6.08 -3.74,9.74 -4.09,10.97l-2.71 10.08 -13.01 0 15.72 -49.71c1.82,-5.77 2.73,-9.87 2.73,-12.33 0,-0.96 -0.43,-1.76 -1.28,-2.4 -1.13,-0.85 -2.63,-1.28 -4.5,-1.28 -1.19,0 -3.37,0.24 -6.54,0.72l-0.6 -2.96z"/>
   <path class="fil3" d="M1950.16 870.17l-11.31 36.43c10.6,-14.89 18.72,-24.69 24.35,-29.38 5.64,-4.7 11.06,-7.05 16.28,-7.05 2.83,0 5.16,0.88 7.01,2.64 1.84,1.77 2.76,4.06 2.76,6.89 0,3.2 -0.82,7.47 -2.46,12.81l-10.37 33.7c-1.19,3.9 -1.79,6.28 -1.79,7.13 0,0.75 0.23,1.37 0.69,1.88 0.45,0.51 0.93,0.76 1.44,0.76 0.68,0 1.5,-0.34 2.46,-1.04 3,-2.24 6.29,-5.66 9.86,-10.25l2.63 1.52c-5.27,7.1 -10.25,12.17 -14.95,15.22 -3.29,2.08 -6.23,3.12 -8.84,3.12 -2.1,0 -3.77,-0.6 -5.02,-1.81 -1.24,-1.19 -1.86,-2.81 -1.86,-4.84 0,-2.56 0.96,-6.96 2.88,-13.21l9.87 -32.18c1.24,-4 1.86,-7.13 1.86,-9.37 0,-1.07 -0.36,-1.93 -1.1,-2.6 -0.74,-0.67 -1.65,-1 -2.72,-1 -1.59,0 -3.49,0.64 -5.7,1.92 -4.19,2.4 -8.55,6.36 -13.08,11.89 -4.53,5.52 -9.32,12.58 -14.36,21.17 -2.67,4.54 -4.88,9.51 -6.63,14.9l-4.25 13.2 -12.75 0 15.47 -50.11c1.81,-6.03 2.72,-9.66 2.72,-10.89 0,-1.17 -0.5,-2.2 -1.49,-3.08 -0.99,-0.88 -2.22,-1.32 -3.7,-1.32 -0.68,0 -1.87,0.11 -3.56,0.32l-3.23 0.48 -0.51 -2.88 29.4 -4.97z"/>
   <path class="fil3" d="M2037.69 838.39c2.38,0 4.39,0.77 6.03,2.32 1.65,1.55 2.47,3.44 2.47,5.68 0,2.2 -0.84,4.07 -2.51,5.65 -1.67,1.57 -3.67,2.36 -5.99,2.36 -2.32,0 -4.32,-0.79 -5.99,-2.36 -1.67,-1.58 -2.51,-3.45 -2.51,-5.65 0,-2.24 0.82,-4.13 2.47,-5.68 1.64,-1.55 3.65,-2.32 6.03,-2.32zm1.1 31.78l-16.82 56.12c-1.13,3.8 -1.7,6.06 -1.7,6.81 0,0.85 0.27,1.54 0.81,2.08 0.54,0.54 1.17,0.8 1.91,0.8 0.85,0 1.87,-0.42 3.06,-1.28 3.23,-2.4 6.48,-5.82 9.77,-10.25l2.97 1.84c-3.85,5.55 -8.38,10.22 -13.6,14.01 -3.84,2.83 -7.53,4.25 -11.04,4.25 -2.32,0 -4.22,-0.66 -5.7,-1.97 -1.47,-1.3 -2.2,-2.94 -2.2,-4.92 0,-1.97 0.7,-5.25 2.12,-9.85l11.05 -35.86c1.81,-5.87 2.72,-9.56 2.72,-11.05 0,-1.17 -0.44,-2.14 -1.32,-2.88 -0.88,-0.75 -2.08,-1.12 -3.61,-1.12 -1.25,0 -3.83,0.29 -7.74,0.88l0 -3.12 29.32 -4.49z"/>
   <path class="fil3" d="M2092.33 850.32l-6.63 21.78 13.34 0 -1.44 5.04 -13.26 0 -14.61 47.23c-1.59,5.07 -2.38,8.36 -2.38,9.85 0,0.91 0.22,1.6 0.68,2.08 0.45,0.48 0.99,0.72 1.61,0.72 1.42,0 3.29,-0.93 5.61,-2.8 1.36,-1.07 4.39,-4.35 9.09,-9.85l2.81 2c-5.21,7.16 -10.15,12.2 -14.79,15.14 -3.17,2.02 -6.37,3.04 -9.6,3.04 -2.5,0 -4.54,-0.74 -6.12,-2.21 -1.59,-1.46 -2.38,-3.34 -2.38,-5.64 0,-2.88 0.91,-7.28 2.72,-13.21l14.19 -46.35 -12.83 0 0.85 -3.13c6.23,-1.6 11.42,-3.99 15.55,-7.16 4.14,-3.17 8.75,-8.69 13.85,-16.53l3.74 0z"/>
   <path class="fil3" d="M2168.05 830.38l-24.99 27.46 -2.88 0 8.75 -27.46 19.12 0zm-51.25 78.14c8.39,-0.91 15.22,-2.45 20.49,-4.64 6.97,-2.94 12.19,-6.45 15.68,-10.53 3.48,-4.08 5.23,-7.97 5.23,-11.65 0,-2.24 -0.76,-4.05 -2.26,-5.45 -1.5,-1.38 -3.64,-2.07 -6.42,-2.07 -5.77,0 -11.91,2.89 -18.39,8.68 -6.49,5.79 -11.26,14.35 -14.33,25.66zm-0.59 3.93c-0.4,2.66 -0.59,4.88 -0.59,6.64 0,4.75 1.78,8.79 5.35,12.12 3.57,3.34 7.9,5.01 13,5.01 4.08,0 8.01,-0.78 11.77,-2.36 3.77,-1.57 9.36,-5.06 16.79,-10.45l1.78 2.32c-13.43,12.55 -26.23,18.82 -38.41,18.82 -8.27,0 -14.5,-2.46 -18.69,-7.37 -4.2,-4.91 -6.29,-10.32 -6.29,-16.25 0,-7.95 2.6,-16.09 7.81,-24.42 5.22,-8.33 11.76,-14.8 19.63,-19.41 7.88,-4.62 15.98,-6.93 24.31,-6.93 6,0 10.45,1.15 13.34,3.44 2.89,2.3 4.33,5.02 4.33,8.17 0,4.43 -1.86,8.67 -5.6,12.73 -4.93,5.28 -12.19,9.56 -21.76,12.81 -6.34,2.19 -15.27,3.89 -26.77,5.13z"/>
   <path class="fil3" d="M1366.23 890.85c0,12.82 -10.38,23.2 -23.19,23.2 -12.81,0 -23.2,-10.38 -23.2,-23.2 0,-12.81 10.39,-23.19 23.2,-23.19 12.81,0 23.19,10.38 23.19,23.19z"/>
   <path class="fil3" d="M642.52 890.85c0,12.82 -10.39,23.2 -23.2,23.2 -12.81,0 -23.19,-10.38 -23.19,-23.2 0,-12.81 10.38,-23.19 23.19,-23.19 12.81,0 23.2,10.38 23.2,23.19z"/>
   <path class="fil4" d="M2091.85 1060.26c-1.2,6.03 7.84,5.34 10.97,10.97 5.45,9.8 1.99,32.41 1.99,51.83 0,18.09 2.05,36.93 -1,43.86 -2.89,6.61 -11.67,5.13 -11.96,10.97 1.74,2.92 6.41,1.02 8.97,1 25.03,-0.25 51.48,2.07 72.78,0 2.63,-2.85 4.56,-8.87 5.98,-13.96 1.2,-4.32 4.47,-13.12 0.99,-14.95 -5.48,-3.61 -6.29,2.83 -7.97,4.99 -2.31,2.94 -2.76,6.4 -6.98,8.96 -9.39,5.72 -22.26,4.24 -35.89,2 -4.09,-11.19 -1.06,-29.51 -1.99,-43.86 12.56,0.07 26.74,-1.49 31.9,5.98 0.86,3.12 -0.34,8.31 4.99,6.97 5.77,-1.05 2.2,-9.36 1.99,-14.95 -0.14,-3.74 -0.1,-8.28 0,-11.96 0.09,-3.14 3.07,-8.4 -1,-8.97 -4.97,-1.68 -5.15,2.84 -6.98,4.98 -2.02,2.39 -1.92,4.41 -5.98,5.98 -6.92,2.67 -15.7,0.96 -24.92,0l0 -38.87c15.95,1.28 30.12,-3.1 37.88,4.98 4.19,4.36 0.42,13.5 9.97,11.96 2.32,-7.32 0.34,-18.93 1,-27.91 -25.96,-1.64 -58.78,-1.67 -84.74,0zm-158.51 -1c-0.77,0.22 -1.15,0.84 -0.99,1.99l0 2c1.99,2.51 8.62,3.74 10.97,8.97 3.1,6.94 1.99,21.68 1.99,36.89 0,15.12 0.53,31.44 0,41.86 -0.27,5.23 -1,14.93 -1.99,16.95 -3.07,6.22 -12.17,3.7 -10.97,10.97 8.72,0.21 26.15,-0.16 36.88,0 4.13,0.06 9.32,2.02 10.97,-1 0.3,-5.48 -6.96,-4.54 -9.97,-8.97 -0.81,-1.2 -2.52,-7.27 -2.99,-11.96 -1.8,-18.14 -1.97,-61.55 0,-77.76 0.25,-2.05 1.61,-7.28 1.99,-7.97 3.19,-5.79 12.68,-4.6 10.97,-10.97 -11.76,-0.99 -33.53,1.52 -46.86,-1zm-75.76 0c-13.75,37.76 -27.11,75.91 -43.86,110.65 -1.71,3.61 -8.77,1.87 -7.98,7.98 2.6,2.66 10.89,1 17.95,1 7.11,0 16.8,2.42 17.94,-1.99 1.51,-4.4 -3.31,-2.58 -3.98,-2.99 -9.07,-5.7 1.22,-27.8 4.98,-34.9l32.9 0c2.91,9.71 7.63,17.62 7.97,29.91 -0.8,5.52 -10.44,2.19 -8.97,9.97 8.58,0.25 26.3,-0.12 36.88,0 3.72,0.04 8.55,1.8 9.97,-1 -0.52,-5.31 -6.14,-7.05 -8.97,-10.97 -4.93,-6.82 -7.42,-16.84 -10.97,-25.91 -10.57,-27.1 -22.82,-55.52 -31.9,-81.75l-11.96 0zm-301.06 0c-0.78,0.22 -1.16,0.84 -1,1.99l0 2c2.05,2.77 7.06,2.88 9.97,6.98 0.6,0.85 2.45,4.54 2.99,7.97 2.17,13.72 1.21,52.52 0,73.77 -0.32,5.69 -0.9,13.74 -1.99,15.95 -2.84,5.73 -11.76,4.57 -10.97,9.97 0.35,3 4.86,1.04 7.98,1 3.28,-0.05 8.08,0 11.96,0 7.76,0 17.26,2.01 18.94,-1.99 -3.48,-4.48 -8.13,-3.92 -10.96,-9.98 -0.97,-2.06 -1.73,-5.49 -2,-7.97 -2.04,-18.91 -0.71,-50.16 0,-67.79 17.04,20.53 36.68,44.14 54.83,66.8 7.21,8.99 13.88,25.68 28.91,21.93l0 -55.83c0,-20.88 -2.88,-51.05 6.98,-57.82 1.81,-1.25 7.53,0.31 5.98,-4.99 -0.14,-3.4 -5.17,-1.05 -7.97,-0.99 -7.83,0.16 -15.11,0.14 -21.93,0 -2.8,-0.06 -7.84,-2.41 -7.98,0.99 -1.71,5.74 4.45,3.78 5.98,4.99 13.11,10.36 2.51,51.01 5.98,72.77 -22.47,-26.37 -44.41,-53.28 -66.79,-79.75 -7.48,1.82 -21.38,1.44 -28.91,0zm-75.76 0c-7.7,24.84 -20.99,57.06 -30.91,82.74 -3.54,9.18 -6.54,20.1 -10.97,25.92 -3.16,4.18 -10.34,4.66 -9.96,10.97 4.22,0.76 11.77,-0.04 18.94,0 7.37,0.04 14.79,1.65 17.94,-1 -0.34,-4.65 -6.26,-4.38 -7.97,-8.97 -3.23,-8.66 5.56,-22.08 7.97,-29.91l33.9 0c1.65,10.65 7.38,17.21 6.97,29.91 -0.49,5.49 -9.73,2.23 -8.97,8.97 1.48,2.84 6.17,1.03 9.97,1 4.16,-0.04 9.26,0 13.96,0 9.3,0 20.03,1.29 23.93,-1 -0.58,-4.24 -6.2,-6.25 -8.98,-9.97 -4.88,-6.53 -8.28,-16.72 -11.96,-25.92 -11.1,-27.74 -21.66,-57.73 -31.9,-82.74l-11.96 0zm-436.64 0c-0.78,0.22 -1.16,0.84 -1,1.99l0 2c1.7,2.84 7.3,3.04 9.97,6.98 0.95,1.4 2.47,6.73 2.99,11.96 1.72,17.32 1.82,59.75 0,76.76 -0.26,2.36 -1.38,7.85 -2,8.97 -3.08,5.62 -12.57,4.62 -10.96,10.97 26.24,-1.28 55.44,2.54 81.74,0 2.79,-5.4 6.79,-15.14 7.98,-21.93 0.32,-1.85 1.91,-6.77 -1,-6.98 -8.89,-2.91 -7.25,8.05 -13.95,12.96 -9.81,7.17 -28.65,6.74 -37.88,0.99 -1,-14.67 -3.22,-27.3 -1,-41.86 10.73,-0.1 21.87,-0.61 28.91,2.99 4.19,2.11 0.42,12.2 8.97,9.96 1.78,-4.16 1,-11.67 1,-17.94 0,-6.19 1.56,-15.8 -2,-17.94 -6.81,0.94 -5.23,6.99 -10.96,9.97 -7.39,3.82 -17.35,2.29 -26.92,0.99 0.33,-13.29 -1.11,-28.36 2,-38.87 16.1,0.17 34.97,-2.42 38.87,9.96 1.84,2.49 -0.66,9.3 5.98,6.98 3.71,-1.78 1.91,-8.39 2,-12.96 0.1,-5.48 -0.08,-11.36 0,-15.95l-82.74 0zm-134.58 0c-0.78,0.22 -1.16,0.84 -1,1.99 -0.43,3.68 -0.05,3.1 1.99,3.99 8,3.52 10.01,5.93 10.97,15.95 1.47,15.53 -1.08,39 -1,51.84 0.21,31.21 16.49,49.32 46.85,48.85 24.56,-0.39 43.14,-13.7 45.86,-35.89 1.37,-11.13 0,-25.21 0,-37.88 0,-9.9 -1.03,-30.52 2,-36.88 2.5,-5.27 9.34,-2.48 9.96,-10.97 -4.2,-0.56 -12,0.08 -19.94,0 -6.74,-0.07 -16.46,-2.41 -17.94,1.99 4.95,5.89 7.27,3.9 9.97,8.98 3.82,7.16 2,21.27 2,33.89 0,22.13 2.19,37.47 -2.99,48.84 -7.82,17.14 -41,22.87 -49.85,2 -5.55,-13.09 -3.17,-45.48 -1.99,-66.79 0.32,-5.81 -1.49,-12.73 0.99,-17.94 3.23,-6.81 10.65,-2.13 10.97,-10.97 -11.64,-0.87 -33.61,1.43 -46.85,-1zm-181.44 1c-9.02,0 -18.34,0.77 -24.92,-1 -1,0 -1.19,0.81 -1.99,1l0 2.99c0.74,2.93 4.71,2.45 6.97,3.98 9.45,6.41 5.98,26.36 5.98,49.85 0,18.68 2.56,41.55 -1,49.84 -2.88,6.75 -12.45,5.12 -11.95,10.97 1.62,2.77 6.99,1.03 10.96,1 9.59,-0.08 19.51,0.06 27.91,0 3.31,-0.02 9.9,2.44 9.97,-1.99 -0.6,-3.73 -8.07,-3.83 -10.96,-8.98 -5.14,-9.13 -2,-31.08 -2,-50.84 0,-18.84 -2.08,-37.71 1,-44.86 2.93,-6.8 11.49,-4.87 11.96,-10.97 -4.48,-2.49 -13.66,-0.99 -21.93,-0.99zm-82.74 0c-13.46,-0.28 -32.23,0.87 -41.87,-1 -0.78,0.22 -1.16,0.84 -1,1.99 -0.47,5.43 8.05,4.72 10.97,10.97 5.4,11.6 2.65,62.19 1.99,76.76 -0.32,7.11 -1.21,17.06 -2.99,19.94 -2.87,4.63 -10.42,3.36 -9.97,8.97 1.26,2.94 6.04,1.03 7.98,1 24.41,-0.34 50.04,2.19 70.78,0 2.62,-2.84 4.52,-8.77 5.98,-13.96 1.22,-4.35 4.51,-13.18 0.99,-14.95 -5.53,-4.09 -5.37,2.95 -6.97,4.99 -2.1,2.65 -3.78,5.72 -6.98,7.97 -9.12,6.41 -23.12,6.25 -34.89,1.99 -2.55,-26.09 -4.99,-76.13 1.99,-96.7 2,-3.64 10.7,-0.59 10.97,-5.98 0.55,-4.42 -4.83,-1.95 -6.98,-1.99zm-72.78 7.97c-16.46,-18.05 -57.01,-3.08 -85.73,-8.97 -0.77,0.22 -1.16,0.84 -1,1.99 -0.58,4.67 0.15,2.78 2.99,3.99 6.74,2.89 9.08,6.64 9.97,14.95 1.87,17.25 1.9,60.93 0,78.76 -0.37,3.49 -1.47,8.03 -1.99,8.97 -3.07,5.66 -10.99,3.97 -10.97,9.97 0.24,2.92 4.07,1 4.99,1 25.57,-0.14 56.34,4.79 73.77,-3.99 25.19,-12.68 21.88,-57.31 -9.97,-61.81 21.22,-2.17 31.7,-29.77 17.94,-44.86zm-182.43 -7.97c-12.4,0.04 -28.29,0.7 -37.88,-1 -0.78,0.22 -1.16,0.84 -1,1.99l0 2c1.18,3.56 4.58,2.23 5.99,2.99 4.88,2.64 6.34,8.25 6.97,14.95 1.43,15.06 -1.1,39.43 -0.99,52.84 0.24,31.09 18.63,47.2 44.86,47.85 20.1,0.5 44.8,-11.09 47.85,-35.89 1.43,-11.67 0,-26.26 0,-38.88 0,-10.35 -1.18,-29.21 1.99,-35.88 2.47,-5.19 9.41,-2.6 9.97,-10.97 -4.2,-0.56 -12,0.08 -19.94,0 -6.74,-0.07 -16.46,-2.41 -17.94,1.99 4.94,5.89 7.27,3.9 9.97,8.98 3.52,6.6 1.99,21.97 1.99,33.89 0,33.08 1.22,60.27 -22.93,63.8 -41.01,5.99 -33.72,-42.17 -31.9,-78.75 0.57,-11.29 -0.33,-19.65 5.98,-23.93 1.27,-0.86 7.34,0.48 5.98,-4.99 -1.45,-2.6 -5.71,-1 -8.97,-0.99zm-251.22 0c-0.28,6.42 9.07,5.67 11.97,12.96 3.53,8.87 1,29.96 1,45.85 0,18.31 2.74,39.15 -1,47.85 -2.84,6.58 -12.4,5 -10.97,10.97 0.09,3.12 4.64,0.99 6.98,1 25.05,0.04 53.11,1.81 73.77,0 2.93,-2.73 4.54,-8.62 5.98,-13.96 1.19,-4.37 4.54,-13.17 1,-14.95 -5.47,-3.63 -6.03,2.5 -7.98,4.99 -2.17,2.77 -2.78,6.41 -6.98,8.96 -7.61,4.64 -32.23,6.76 -36.88,-0.99 -2.28,-11.68 -0.37,-27.55 -1,-40.87 11,-0.04 22.67,-0.74 29.91,2.99 2.49,2.98 2.29,11.16 5.98,9.96 6.58,-0.53 4.04,-11.25 3.99,-17.94 -0.06,-6.83 1.05,-15.57 -2,-17.94 -6.14,-2.73 -4.42,4.14 -5.98,5.98 -6.12,7.22 -18.82,7.11 -31.9,4.98l0 -38.87c14.83,1.58 27.47,-3.02 35.89,2.99 5.97,4.25 1.89,14.75 11.96,13.95 2.32,-7.32 0.34,-18.93 1,-27.91 -25.94,-1.66 -58.8,-1.66 -84.74,0zm1272.04 28.91c0.66,-41.13 -49.61,-28.29 -84.73,-28.91 -0.96,-0.02 -5.62,-2.18 -5.98,0.99 -0.47,5.79 6.9,4.04 9.96,8.98 1.62,2.59 2.64,11.45 2.99,17.94 0.82,14.75 1.33,49.04 0,66.8 -0.31,4.17 -1.21,11.46 -1.99,12.95 -3.19,6.09 -12.88,4.45 -10.96,10.97 8.8,0.11 26.64,0.06 37.88,0 3.62,-0.02 9.82,2.44 9.96,-1.99 -3.09,-5.53 -7.64,-3 -10.96,-8.98 -5.74,-10.32 -0.86,-31.64 -0.99,-42.86 6.19,-1.1 8.66,3.9 11.95,8.97 8.37,12.83 19.08,39.29 30.91,44.86 5.02,2.36 28.49,3.87 26.92,-1.99 1.18,-3.21 -3.23,-4.43 -4.99,-5.99 -14.77,-13.04 -23.47,-34.48 -35.89,-49.84 14.08,-5.87 25.64,-14.34 25.92,-31.9zm-1072.65 5.98c3.76,-43.28 -47.33,-36.91 -82.75,-34.89 -1.47,0.08 -7.34,-2.75 -6.97,1.99 0.78,4.69 8,3.5 10.96,8.98 0.45,0.81 1.64,7.07 1.99,10.96 1.66,17.92 2.05,60.88 0,77.76 -0.2,1.68 -1.61,7.28 -1.99,7.97 -3.05,5.54 -12.61,4.69 -10.96,10.97 8.69,0.12 26.62,0.04 37.88,0 3.51,-0.01 10.36,2.44 9.96,-1.99 0.95,-4.05 -3.39,-3.01 -4.98,-3.99 -2.35,-1.47 -3.32,-1.97 -4.98,-4.99 -5.47,-9.94 -4.83,-51.29 -2.99,-73.77 0.63,-7.79 0.78,-16.97 1.99,-23.92 33.86,-9.16 39.37,50.17 2.99,45.85 -0.12,4.45 2.46,6.18 2.99,9.97 26.51,1.81 45.17,-11.47 46.86,-30.9zm1662.81 -12.96c-1.62,8.54 -0.25,21.13 4.99,28.91 11.92,17.69 51.36,21.45 46.85,48.85 -10.17,16.06 -34.41,11.14 -42.86,0 -3.15,-4.15 -2.61,-13.54 -9.97,-10.97 -3.46,2.04 -1.49,8.35 -1,12.96 0.47,4.41 2.25,9.85 1.99,13.96 32.46,13.42 73.15,3.13 72.78,-27.92 -0.35,-29.72 -35.91,-34.06 -48.85,-50.84 -11.38,-14.75 0.84,-33.03 21.93,-27.91 4.5,1.09 8.76,5.75 10.97,8.97 3.04,4.46 0.93,10.94 8.97,10.97 3.71,-1.43 1.91,-7.69 1.99,-11.96 0.11,-4.95 -0.08,-9.94 0,-13.96 -25.92,-12.08 -63.21,-5.19 -67.79,18.94zm-235.27 -24.92c-45.9,-2.55 -75.83,26.28 -71.77,69.78 2.9,31.16 21.59,49.14 53.83,54.83 -1.86,4.12 -2.12,9.84 -3.99,13.96 6,1.55 11.52,-2.42 12.97,3.98 3.01,13.33 -18.63,1.6 -16.95,12.96 13.65,8.69 36.24,-1.3 28.91,-19.93 -2.24,-4.41 -10.4,-2.9 -12.96,-6.99 2.33,-6.97 12.59,-3.92 18.94,-4.98 7.54,-1.26 13.64,-4.42 18.94,-5.98 -1.91,-10.31 5.4,-20.62 1,-26.92 -8.15,-0.16 -7.46,7.72 -9.97,10.97 -3.16,4.09 -8.93,8.7 -15.95,9.97 -47.1,8.49 -66.35,-63.3 -38.88,-89.72 12.06,-11.61 43.97,-14.46 54.83,0.99 1.91,4.08 1.19,10.78 8.97,8.98 2.32,-6.99 0.34,-18.27 1,-26.92 -10.62,-2.14 -18.52,-4.41 -28.92,-4.98zm-872.27 58.81c-0.37,-53.78 -66.63,-77.6 -105.67,-43.86 -23.5,20.31 -29.9,67.16 -4.99,92.71 12.26,12.57 32.51,18.99 58.82,15.95 20.24,16.73 58.43,40.05 92.71,26.92 4.23,-1.62 11.85,-3.95 8.97,-9.97 -1.99,-4.02 -4.91,0.45 -6.98,1 -30.61,8.16 -56.4,-13.26 -75.76,-24.92 20.13,-11.71 33.08,-29.75 32.9,-57.83zm307.04 -81.74c-0.78,0.22 -1.16,0.83 -1,1.99l0 2c2.4,4.22 9.84,4.45 12.96,9.96 0.92,1.62 2.53,8.34 2.99,13.96 1.59,19.35 1.9,67.76 0,90.72 -0.38,4.6 -1.3,9.58 -1.99,11.96 -2.1,7.19 -14.64,5.79 -13.96,11.97 0.88,4.49 7.55,1.97 11.96,1.99 11.25,0.06 23.65,-0.08 33.9,0 4.95,0.03 11.8,2.45 12.96,-1.99 -0.07,-4.96 -5.01,-4.63 -6.98,-5.99 -2.74,-1.88 -5,-2.31 -6.98,-6.98 -5.78,-13.66 0.24,-35.9 -1.99,-53.83 13.91,1.38 25.11,-2.47 32.9,2.99 5.5,3.86 2.21,14.79 11.96,12.96 3.89,-7.04 0.7,-18.83 1,-28.91 0.15,-5.04 4.21,-12.7 -2,-14.95 -8.58,-0.55 -5.44,7.92 -10.96,11.96 -8.05,5.89 -21.75,3.99 -32.9,2 0.64,-15.65 -1.3,-33.86 0.99,-47.86 19.44,0.75 35.35,-2.62 43.87,7.98 4.11,5.12 0.66,14.4 10.96,13.96 2.27,-2.44 1.03,-10.52 1,-16.95 -0.04,-7.62 0.34,-15.01 0,-18.94l-98.69 0zm-1090.61 27.91c-4.42,-27.9 -31.96,-29.43 -61.8,-27.91 -11.97,0.61 -26.31,-0.67 -38.88,0 -2.66,0.14 -8.77,-1.53 -8.97,2.99 -1.66,4.35 2.75,3.84 4.98,4.98 2.67,1.37 4.91,1.19 6.98,3.99 2.22,3.01 3.56,13.28 3.99,20.93 1,18.05 1.7,62.2 0,83.74 -0.5,6.27 -2.43,14.88 -3.99,16.95 -3.37,4.48 -12.91,3.59 -11.96,8.98 1.19,4.17 7.51,1.95 11.96,1.99 10.93,0.1 23.02,-0.12 32.9,0 4.63,0.06 12.31,2.64 12.95,-1.99 1.2,-5.54 -4.65,-4.21 -5.97,-4.99 -13.51,-7.92 -9.25,-38.82 -8.97,-57.82 1.57,0.66 4.36,-0.79 6.97,0 6.58,1.98 18.94,27.94 21.93,32.9 12.22,20.19 16.22,36.09 45.86,33.89 3.47,-0.26 11.94,0.88 10.97,-3.98 3.02,-4.17 -3.67,-4.91 -4.99,-5.99 -18.83,-15.42 -28.79,-43.1 -44.86,-61.8 18.8,-5.85 34.41,-24.72 30.9,-46.86zm80.75 -44.86c-4.99,9.29 -11.53,17.04 -16.94,25.92 3.2,1.44 5.59,3.72 8.97,4.98 9.85,-9.41 20.34,-18.19 29.9,-27.91 -7.95,-0.35 -13.34,-3.27 -21.93,-2.99z"/>
   <path class="fil5" d="M212.7 1020.38c-9.56,9.72 -20.05,18.5 -29.9,27.91 -3.38,-1.26 -5.77,-3.54 -8.97,-4.98 5.41,-8.88 11.95,-16.63 16.94,-25.92 8.59,-0.28 13.98,2.64 21.93,2.99z"/>
   <path class="fil5" d="M57.19 1045.3c-7.09,-0.71 -6.86,0.77 -13.95,2 0.27,14.7 -1.72,35.4 -1,53.83 44.03,11.72 52.05,-52.09 14.95,-55.83zm21.93 63.81c16.07,18.7 26.04,46.38 44.86,61.8 1.32,1.08 8.01,1.82 4.99,5.99 0.97,4.86 -7.5,3.72 -10.97,3.98 -29.64,2.2 -33.64,-13.7 -45.86,-33.89 -2.99,-4.96 -15.35,-30.92 -21.93,-32.9 -2.61,-0.79 -5.4,0.66 -6.97,0 -0.28,19 -4.54,49.9 8.97,57.82 1.32,0.78 7.17,-0.55 5.98,4.99 -0.65,4.63 -8.33,2.05 -12.96,1.99 -9.88,-0.12 -21.97,0.1 -32.9,0 -4.45,-0.04 -10.77,2.18 -11.96,-1.99 -0.95,-5.39 8.59,-4.5 11.96,-8.98 1.56,-2.07 3.49,-10.68 3.99,-16.95 1.7,-21.54 1,-65.69 0,-83.74 -0.43,-7.65 -1.77,-17.92 -3.99,-20.93 -2.07,-2.8 -4.31,-2.62 -6.98,-3.99 -2.23,-1.14 -6.64,-0.63 -4.98,-4.98 0.2,-4.52 6.31,-2.85 8.97,-2.99 12.57,-0.67 26.91,0.61 38.88,0 29.84,-1.52 57.38,0.01 61.81,27.91 3.5,22.14 -12.11,41.02 -30.91,46.86z"/>
   <path class="fil5" d="M1299.32 1034.34c0.34,3.93 -0.04,11.32 0,18.94 0.03,6.43 1.27,14.51 -1,16.95 -10.3,0.44 -6.85,-8.84 -10.96,-13.96 -8.52,-10.6 -24.43,-7.23 -43.87,-7.98 -2.29,14 -0.35,32.21 -0.99,47.86 11.15,1.99 24.85,3.89 32.9,-2 5.52,-4.04 2.38,-12.51 10.96,-11.96 6.21,2.25 2.15,9.91 2,14.95 -0.3,10.08 2.89,21.87 -1,28.91 -9.75,1.83 -6.46,-9.1 -11.96,-12.96 -7.79,-5.46 -18.99,-1.61 -32.9,-2.99 2.23,17.93 -3.79,40.17 1.99,53.83 1.98,4.67 4.24,5.1 6.98,6.98 1.97,1.36 6.91,1.03 6.98,5.99 -1.16,4.44 -8.01,2.02 -12.96,1.99 -10.25,-0.08 -22.65,0.06 -33.9,0 -4.41,-0.02 -11.08,2.5 -11.96,-1.99 -0.68,-6.18 11.86,-4.78 13.96,-11.97 0.69,-2.38 1.61,-7.36 1.99,-11.96 1.9,-22.96 1.59,-71.37 0,-90.72 -0.46,-5.62 -2.07,-12.34 -2.99,-13.96 -3.12,-5.51 -10.56,-5.74 -12.96,-9.96l0 -2c-0.16,-1.16 0.22,-1.77 1,-1.99l98.69 0z"/>
   <path class="fil4" d="M42.24 1101.13c-0.72,-18.43 1.27,-39.14 1,-53.83 7.09,-1.23 6.86,-2.71 13.95,-2 37.1,3.74 29.08,67.55 -14.95,55.83z"/>
   <path class="fil5" d="M846.73 1166.92c40.13,-15.71 25.49,-104.84 -25.92,-95.69 -52.93,9.41 -29.8,117.52 25.92,95.69zm13.96 6.99c19.36,11.66 45.15,33.08 75.76,24.92 2.07,-0.55 4.99,-5.02 6.98,-1 2.88,6.02 -4.74,8.35 -8.97,9.97 -34.28,13.13 -72.47,-10.19 -92.71,-26.92 -26.31,3.04 -46.56,-3.38 -58.82,-15.95 -24.91,-25.55 -18.51,-72.4 4.99,-92.71 39.04,-33.74 105.3,-9.92 105.67,43.86 0.18,28.08 -12.77,46.12 -32.9,57.83z"/>
   <path class="fil5" d="M1794.78 1062.25c-0.66,8.65 1.32,19.93 -1,26.92 -7.78,1.8 -7.06,-4.9 -8.97,-8.98 -10.86,-15.45 -42.77,-12.6 -54.83,-0.99 -27.47,26.42 -8.22,98.21 38.88,89.72 7.02,-1.27 12.79,-5.88 15.95,-9.97 2.51,-3.25 1.82,-11.13 9.97,-10.97 4.4,6.3 -2.91,16.61 -1,26.92 -5.3,1.56 -11.4,4.72 -18.94,5.98 -6.35,1.06 -16.61,-1.99 -18.94,4.98 2.56,4.09 10.72,2.58 12.96,6.99 7.33,18.63 -15.26,28.62 -28.91,19.93 -1.68,-11.36 19.96,0.37 16.95,-12.96 -1.45,-6.4 -6.97,-2.43 -12.97,-3.98 1.87,-4.12 2.13,-9.84 3.99,-13.96 -32.24,-5.7 -50.93,-23.67 -53.83,-54.83 -4.06,-43.5 25.87,-72.33 71.77,-69.78 10.4,0.57 18.3,2.84 28.92,4.98z"/>
   <path class="fil5" d="M2068.92 1063.25c-0.08,4.02 0.11,9.01 0,13.96 -0.08,4.27 1.72,10.53 -1.99,11.96 -8.04,-0.03 -5.93,-6.52 -8.97,-10.97 -2.21,-3.22 -6.47,-7.88 -10.97,-8.97 -21.09,-5.12 -33.31,13.16 -21.93,27.91 12.94,16.78 48.5,21.12 48.85,50.84 0.37,31.05 -40.32,41.34 -72.78,27.92 0.26,-4.11 -1.52,-9.55 -1.99,-13.96 -0.49,-4.61 -2.46,-10.92 1,-12.96 7.36,-2.57 6.82,6.82 9.97,10.97 8.45,11.14 32.69,16.06 42.86,0 4.51,-27.4 -34.93,-31.16 -46.85,-48.85 -5.24,-7.78 -6.61,-20.37 -4.99,-28.91 4.58,-24.13 41.87,-31.02 67.79,-18.94z"/>
   <path class="fil5" d="M291.46 1126.05c-0.53,-3.79 -3.11,-5.52 -2.99,-9.97 36.38,4.32 30.87,-55.01 -2.99,-45.85 -1.21,6.95 -1.36,16.13 -1.99,23.92 -1.84,22.48 -2.48,63.83 2.99,73.77 1.66,3.02 2.63,3.52 4.98,4.99 1.59,0.98 5.93,-0.06 4.98,3.99 0.4,4.43 -6.45,1.98 -9.96,1.99 -11.26,0.04 -29.19,0.12 -37.88,0 -1.65,-6.28 7.91,-5.43 10.96,-10.97 0.38,-0.69 1.79,-6.29 1.99,-7.97 2.05,-16.88 1.66,-59.84 0,-77.76 -0.35,-3.89 -1.54,-10.15 -1.99,-10.96 -2.96,-5.48 -10.18,-4.29 -10.96,-8.98 -0.37,-4.74 5.5,-1.91 6.97,-1.99 35.42,-2.02 86.51,-8.39 82.75,34.89 -1.69,19.43 -20.35,32.71 -46.86,30.9z"/>
   <path class="fil5" d="M1356.15 1070.23c-0.78,0.22 -1.17,0.83 -1,1.99 0.86,14.61 -1.64,32.63 1,42.87 40.75,8.28 40.2,-56.23 0,-44.86zm28.9 50.84c12.42,15.36 21.12,36.81 35.89,49.84 1.76,1.56 6.17,2.79 4.99,5.99 1.57,5.86 -21.9,4.35 -26.92,1.99 -11.83,-5.57 -22.54,-32.03 -30.91,-44.86 -3.29,-5.07 -5.76,-10.07 -11.95,-8.97 0.13,11.22 -4.75,32.54 0.99,42.86 3.32,5.98 7.87,3.45 10.96,8.98 -0.14,4.43 -6.34,1.97 -9.96,1.99 -11.24,0.05 -29.08,0.11 -37.88,0 -1.92,-6.52 7.77,-4.88 10.96,-10.97 0.78,-1.49 1.68,-8.78 1.99,-12.95 1.33,-17.76 0.82,-52.05 0,-66.8 -0.35,-6.49 -1.37,-15.35 -2.99,-17.94 -3.06,-4.94 -10.43,-3.19 -9.96,-8.98 0.36,-3.17 5.02,-1.01 5.98,-0.99 35.12,0.62 85.39,-12.22 84.73,28.91 -0.28,17.56 -11.84,26.03 -25.92,31.9z"/>
   <path class="fil5" d="M223.67 1060.26c-0.66,8.98 1.32,20.59 -1,27.91 -10.07,0.8 -5.99,-9.7 -11.96,-13.95 -8.42,-6.01 -21.06,-1.41 -35.89,-2.99l0 38.87c13.08,2.13 25.78,2.24 31.9,-4.98 1.56,-1.84 -0.16,-8.71 5.98,-5.98 3.05,2.37 1.94,11.11 2,17.94 0.05,6.69 2.59,17.41 -3.99,17.94 -3.69,1.2 -3.49,-6.98 -5.98,-9.96 -7.24,-3.73 -18.91,-3.03 -29.91,-2.99 0.63,13.32 -1.28,29.19 1,40.87 4.65,7.75 29.27,5.63 36.88,0.99 4.2,-2.55 4.81,-6.19 6.98,-8.96 1.95,-2.49 2.51,-8.62 7.98,-4.99 3.54,1.78 0.19,10.58 -1,14.95 -1.44,5.34 -3.05,11.23 -5.98,13.96 -20.66,1.81 -48.72,0.04 -73.77,0 -2.34,-0.01 -6.89,2.12 -6.98,-1 -1.43,-5.97 8.13,-4.39 10.97,-10.97 3.74,-8.7 1,-29.54 1,-47.85 0,-15.89 2.53,-36.98 -1,-45.85 -2.9,-7.29 -12.25,-6.54 -11.97,-12.96 25.94,-1.66 58.8,-1.66 84.74,0z"/>
   <path class="fil5" d="M399.12 1061.25c1.36,5.47 -4.71,4.13 -5.98,4.99 -6.31,4.28 -5.41,12.64 -5.98,23.93 -1.82,36.58 -9.11,84.74 31.9,78.75 24.15,-3.53 22.93,-30.72 22.93,-63.8 0,-11.92 1.53,-27.29 -1.99,-33.89 -2.7,-5.08 -5.03,-3.09 -9.97,-8.98 1.48,-4.4 11.2,-2.06 17.94,-1.99 7.94,0.08 15.74,-0.56 19.94,0 -0.56,8.37 -7.5,5.78 -9.97,10.97 -3.17,6.67 -1.99,25.53 -1.99,35.88 0,12.62 1.43,27.21 0,38.88 -3.05,24.8 -27.75,36.39 -47.85,35.89 -26.23,-0.65 -44.62,-16.76 -44.86,-47.85 -0.11,-13.41 2.42,-37.78 0.99,-52.84 -0.63,-6.7 -2.09,-12.31 -6.97,-14.95 -1.41,-0.76 -4.81,0.58 -5.99,-2.99l0 -2c-0.16,-1.15 0.22,-1.77 1,-1.99 9.59,1.7 25.48,1.04 37.88,1 3.26,-0.01 7.52,-1.61 8.97,0.99z"/>
   <path class="fil5" d="M551.65 1126.05c-4.96,-4.85 -19.44,-8.89 -29.91,-5.98 -2.08,9.37 -1.93,32.7 1,45.86 29.67,17.07 47.17,-22.01 28.91,-39.88zm1 -25.92c11.24,-16.31 -4.94,-35.47 -28.92,-30.9 -5.02,8.32 -3.16,28.65 -1.99,39.88 14.11,-0.07 25.53,-1.18 30.91,-8.98zm1.99 12.96c31.85,4.5 35.17,49.13 9.97,61.81 -17.43,8.78 -48.2,3.85 -73.77,3.99 -0.92,0 -4.75,1.92 -4.99,-1 -0.02,-6 7.9,-4.31 10.97,-9.97 0.52,-0.94 1.62,-5.48 1.99,-8.97 1.9,-17.83 1.87,-61.51 0,-78.76 -0.89,-8.31 -3.23,-12.06 -9.97,-14.95 -2.84,-1.21 -3.57,0.68 -2.99,-3.99 -0.16,-1.15 0.23,-1.77 1,-1.99 28.72,5.89 69.27,-9.08 85.73,8.98 13.76,15.08 3.28,42.68 -17.94,44.85z"/>
   <path class="fil5" d="M652.34 1062.25c-0.27,5.39 -8.97,2.34 -10.97,5.99 -6.98,20.56 -4.54,70.6 -1.99,96.69 11.77,4.26 25.77,4.42 34.89,-1.99 3.2,-2.25 4.88,-5.32 6.98,-7.97 1.6,-2.04 1.44,-9.08 6.97,-4.99 3.52,1.77 0.23,10.6 -0.99,14.95 -1.46,5.19 -3.36,11.12 -5.98,13.96 -20.74,2.19 -46.37,-0.34 -70.78,0 -1.94,0.03 -6.72,1.94 -7.98,-1 -0.45,-5.61 7.1,-4.34 9.97,-8.97 1.78,-2.88 2.67,-12.83 2.99,-19.94 0.66,-14.57 3.41,-65.16 -1.99,-76.76 -2.92,-6.25 -11.44,-5.54 -10.97,-10.97 -0.16,-1.15 0.22,-1.77 1,-1.99 9.64,1.87 28.41,0.72 41.87,1 2.15,0.04 7.53,-2.44 6.98,1.99z"/>
   <path class="fil5" d="M750.03 1061.25c-0.47,6.1 -9.03,4.17 -11.96,10.97 -3.08,7.15 -1,26.02 -1,44.86 0,19.76 -3.14,41.71 2,50.84 2.89,5.15 10.37,5.25 10.96,8.98 -0.07,4.43 -6.66,1.97 -9.97,1.99 -8.4,0.06 -18.32,-0.08 -27.91,0 -3.97,0.03 -9.34,1.77 -10.96,-1 -0.5,-5.85 9.07,-4.22 11.95,-10.97 3.56,-8.29 1,-31.16 1,-49.84 0.01,-23.49 3.47,-43.44 -5.98,-49.85 -2.26,-1.53 -6.23,-1.05 -6.97,-3.98l0 -2.99c0.8,-0.19 0.99,-1 1.99,-1 6.58,1.77 15.9,1 24.92,1 8.27,0 17.45,-1.5 21.93,0.99z"/>
   <path class="fil5" d="M956.39 1060.26c-0.32,8.84 -7.74,4.16 -10.97,10.97 -2.48,5.21 -0.67,12.13 -0.99,17.94 -1.18,21.31 -3.56,53.7 1.99,66.79 8.85,20.87 42.03,15.14 49.85,-2 5.18,-11.37 2.99,-26.71 2.99,-48.84 0,-12.62 1.82,-26.73 -2,-33.89 -2.7,-5.08 -5.02,-3.09 -9.97,-8.98 1.48,-4.4 11.2,-2.06 17.94,-1.99 7.94,0.08 15.74,-0.56 19.95,0 -0.63,8.49 -7.47,5.7 -9.97,10.97 -3.03,6.36 -2,26.98 -2,36.88 0,12.67 1.37,26.75 0,37.88 -2.72,22.19 -21.3,35.5 -45.86,35.89 -30.36,0.47 -46.64,-17.64 -46.85,-48.85 -0.08,-12.84 2.47,-36.31 0.99,-51.84 -0.95,-10.02 -2.96,-12.43 -10.96,-15.95 -2.04,-0.89 -2.42,-0.31 -1.99,-3.99 -0.17,-1.15 0.22,-1.77 1,-1.99 13.24,2.43 35.21,0.13 46.85,1z"/>
   <path class="fil5" d="M1126.86 1059.26c-0.08,4.59 0.1,10.47 0,15.95 -0.09,4.57 1.71,11.18 -2,12.96 -6.64,2.32 -4.14,-4.49 -5.98,-6.98 -3.9,-12.38 -22.77,-9.79 -38.87,-9.96 -3.11,10.51 -1.67,25.58 -2,38.87 9.57,1.3 19.53,2.83 26.92,-0.99 5.73,-2.98 4.15,-9.03 10.96,-9.97 3.56,2.14 2,11.75 2,17.94 0,6.27 0.78,13.78 -1,17.94 -8.55,2.24 -4.78,-7.85 -8.97,-9.96 -7.04,-3.6 -18.18,-3.09 -28.91,-2.99 -2.22,14.56 0,27.19 1,41.86 9.23,5.75 28.07,6.18 37.88,-0.99 6.7,-4.91 5.06,-15.87 13.95,-12.96 2.91,0.21 1.32,5.13 1,6.98 -1.19,6.79 -5.19,16.53 -7.98,21.93 -26.3,2.54 -55.5,-1.28 -81.74,0 -1.61,-6.35 7.87,-5.35 10.96,-10.97 0.62,-1.12 1.74,-6.61 2,-8.97 1.82,-17.01 1.72,-59.44 0,-76.76 -0.52,-5.23 -2.04,-10.56 -2.99,-11.96 -2.67,-3.94 -8.27,-4.14 -9.97,-6.98l0 -2c-0.16,-1.15 0.22,-1.77 1,-1.99l82.74 0z"/>
   <path class="fil5" d="M1468.79 1128.05l25.92 0c-2.63,-12.33 -7.96,-21.94 -10.96,-33.9 -0.22,-0.78 -0.84,-1.15 -2,-0.99 -3.79,12.15 -8.63,23.25 -12.96,34.89zm23.93 -68.79c10.24,25.01 20.8,55 31.9,82.74 3.68,9.2 7.08,19.39 11.96,25.92 2.78,3.72 8.4,5.73 8.98,9.97 -3.9,2.29 -14.63,1 -23.93,1 -4.7,0 -9.8,-0.04 -13.96,0 -3.8,0.03 -8.49,1.84 -9.97,-1 -0.76,-6.74 8.48,-3.48 8.97,-8.97 0.41,-12.7 -5.32,-19.26 -6.97,-29.91l-33.9 0c-2.41,7.83 -11.2,21.25 -7.97,29.91 1.71,4.59 7.63,4.32 7.97,8.97 -3.15,2.65 -10.57,1.03 -17.94,1 -7.16,-0.04 -14.72,0.76 -18.94,0 -0.38,-6.31 6.8,-6.79 9.96,-10.97 4.43,-5.82 7.43,-16.74 10.97,-25.92 9.92,-25.68 23.21,-57.9 30.91,-82.74l11.96 0z"/>
   <path class="fil5" d="M1585.43 1059.26c22.38,26.47 44.32,53.38 66.79,79.75 -3.47,-21.76 7.13,-62.41 -5.98,-72.77 -1.53,-1.21 -7.69,0.75 -5.98,-4.99 0.14,-3.4 5.18,-1.05 7.98,-0.99 6.82,0.14 14.1,0.16 21.93,0 2.8,-0.06 7.83,-2.41 7.97,0.99 1.55,5.3 -4.17,3.74 -5.98,4.99 -9.86,6.77 -6.98,36.95 -6.98,57.82l0 55.83c-15.03,3.75 -21.7,-12.94 -28.91,-21.93 -18.15,-22.66 -37.79,-46.27 -54.83,-66.8 -0.71,17.63 -2.04,48.88 0,67.79 0.27,2.48 1.03,5.91 2,7.97 2.83,6.06 7.48,5.5 10.96,9.98 -1.68,4 -11.18,1.99 -18.94,1.99 -3.88,0 -8.68,-0.05 -11.96,0 -3.12,0.04 -7.63,2 -7.98,-1 -0.79,-5.4 8.13,-4.24 10.97,-9.97 1.09,-2.21 1.67,-10.26 1.99,-15.95 1.21,-21.25 2.17,-60.05 0,-73.77 -0.54,-3.43 -2.39,-7.12 -2.99,-7.97 -2.91,-4.1 -7.92,-4.21 -9.97,-6.98l0 -2c-0.16,-1.15 0.22,-1.77 1,-1.99 7.53,1.45 21.44,1.82 28.91,0z"/>
   <path class="fil5" d="M1845.62 1128.05l25.92 0c-4.11,-12.18 -7.73,-24.85 -12.96,-35.89 -3.63,12.66 -9.25,23.32 -12.96,35.89zm23.92 -68.79c9.08,26.23 21.33,54.65 31.9,81.75 3.55,9.07 6.04,19.09 10.97,25.91 2.83,3.92 8.45,5.66 8.97,10.97 -1.42,2.8 -6.25,1.04 -9.97,1 -10.58,-0.12 -28.3,0.25 -36.88,0 -1.47,-7.78 8.17,-4.45 8.97,-9.97 -0.34,-12.29 -5.06,-20.2 -7.97,-29.91l-32.9 0c-3.76,7.1 -14.05,29.2 -4.98,34.9 0.67,0.41 5.49,-1.41 3.98,2.99 -1.14,4.41 -10.83,1.99 -17.94,1.99 -7.06,0 -15.35,1.67 -17.95,-1 -0.79,-6.11 6.27,-4.37 7.98,-7.98 16.75,-34.74 30.11,-72.89 43.86,-110.65l11.96 0z"/>
   <path class="fil5" d="M1980.2 1060.26c1.71,6.37 -7.78,5.18 -10.97,10.97 -0.38,0.69 -1.74,5.92 -1.99,7.97 -1.97,16.21 -1.8,59.62 0,77.76 0.47,4.69 2.18,10.76 2.99,11.96 3.01,4.43 10.27,3.49 9.97,8.97 -1.65,3.02 -6.84,1.06 -10.97,1 -10.73,-0.16 -28.16,0.21 -36.88,0 -1.2,-7.27 7.9,-4.75 10.97,-10.97 0.99,-2.02 1.72,-11.72 1.99,-16.95 0.53,-10.42 0,-26.74 0,-41.86 0,-15.21 1.11,-29.95 -1.99,-36.89 -2.35,-5.23 -8.98,-6.46 -10.97,-8.97l0 -2c-0.16,-1.15 0.22,-1.77 0.99,-1.99 13.33,2.52 35.1,0.01 46.86,1z"/>
   <path class="fil5" d="M2176.59 1060.26c-0.66,8.98 1.32,20.59 -1,27.91 -9.55,1.54 -5.78,-7.6 -9.97,-11.96 -7.76,-8.08 -21.93,-3.7 -37.88,-4.98l0 38.87c9.22,0.96 18,2.67 24.92,0 4.06,-1.57 3.96,-3.59 5.98,-5.98 1.83,-2.14 2.01,-6.66 6.98,-4.98 4.07,0.57 1.09,5.83 1,8.97 -0.1,3.68 -0.14,8.22 0,11.96 0.21,5.59 3.78,13.9 -1.99,14.95 -5.33,1.34 -4.13,-3.85 -4.99,-6.97 -5.16,-7.47 -19.34,-5.91 -31.9,-5.98 0.93,14.35 -2.1,32.67 1.99,43.86 13.63,2.24 26.5,3.72 35.89,-2 4.23,-2.56 4.67,-6.02 6.98,-8.96 1.68,-2.16 2.49,-8.6 7.97,-4.99 3.48,1.83 0.21,10.63 -0.99,14.95 -1.42,5.09 -3.35,11.11 -5.98,13.96 -21.3,2.07 -47.75,-0.25 -72.78,0 -2.56,0.02 -7.23,1.92 -8.97,-1 0.29,-5.84 9.07,-4.36 11.96,-10.97 3.05,-6.93 1,-25.77 1,-43.86 0,-19.42 3.46,-42.03 -1.99,-51.83 -3.13,-5.63 -12.17,-4.94 -10.97,-10.97 25.96,-1.67 58.78,-1.64 84.74,0z"/>
   <path class="fil4" d="M521.74 1109.11c-1.17,-11.23 -3.03,-31.56 1.99,-39.88 23.98,-4.57 40.16,14.59 28.92,30.9 -5.38,7.8 -16.8,8.91 -30.91,8.98z"/>
   <path class="fil4" d="M1356.15 1115.09c-2.64,-10.24 -0.14,-28.26 -1,-42.87 -0.17,-1.16 0.22,-1.77 1,-1.99 40.2,-11.37 40.75,53.14 0,44.86z"/>
   <path class="fil4" d="M820.81 1071.23c51.41,-9.15 66.05,79.98 25.92,95.69 -55.72,21.83 -78.85,-86.28 -25.92,-95.69z"/>
   <path class="fil4" d="M1858.58 1092.16c5.23,11.04 8.85,23.71 12.96,35.89l-25.92 0c3.71,-12.57 9.33,-23.23 12.96,-35.89z"/>
   <path class="fil4" d="M1481.75 1093.16c1.16,-0.16 1.78,0.21 2,0.99 3,11.96 8.33,21.57 10.96,33.9l-25.92 0c4.33,-11.64 9.17,-22.74 12.96,-34.89z"/>
   <path class="fil4" d="M522.74 1165.93c-2.93,-13.16 -3.08,-36.49 -1,-45.86 10.47,-2.91 24.95,1.13 29.91,5.98 18.26,17.87 0.76,56.95 -28.91,39.88z"/>
  </g>
 </g>
</svg>
